<mxfile host="app.diagrams.net" modified="2024-05-14T16:10:45.047Z" agent="Mozilla/5.0 (Windows NT 10.0; Win64; x64) AppleWebKit/537.36 (KHTML, like Gecko) Chrome/121.0.0.0 Safari/537.36 Edg/121.0.0.0" etag="dAK6Ao5jGK9SH_YkWWBZ" version="21.2.3" type="device">
  <diagram id="C5RBs43oDa-KdzZeNtuy" name="Page-1">
    <mxGraphModel dx="1026" dy="425" grid="1" gridSize="10" guides="1" tooltips="1" connect="1" arrows="1" fold="1" page="1" pageScale="1" pageWidth="827" pageHeight="1169" math="0" shadow="0">
      <root>
        <mxCell id="WIyWlLk6GJQsqaUBKTNV-0" />
        <mxCell id="WIyWlLk6GJQsqaUBKTNV-1" parent="WIyWlLk6GJQsqaUBKTNV-0" />
        <mxCell id="HCYrjCYM6zXAuYPB4qto-2" style="edgeStyle=orthogonalEdgeStyle;rounded=0;orthogonalLoop=1;jettySize=auto;html=1;exitX=0.5;exitY=1;exitDx=0;exitDy=0;" edge="1" parent="WIyWlLk6GJQsqaUBKTNV-1" source="HCYrjCYM6zXAuYPB4qto-0">
          <mxGeometry relative="1" as="geometry">
            <mxPoint x="190" y="290" as="targetPoint" />
          </mxGeometry>
        </mxCell>
        <mxCell id="HCYrjCYM6zXAuYPB4qto-3" style="edgeStyle=orthogonalEdgeStyle;rounded=0;orthogonalLoop=1;jettySize=auto;html=1;exitX=0.5;exitY=1;exitDx=0;exitDy=0;" edge="1" parent="WIyWlLk6GJQsqaUBKTNV-1" source="HCYrjCYM6zXAuYPB4qto-0">
          <mxGeometry relative="1" as="geometry">
            <mxPoint x="480" y="290" as="targetPoint" />
          </mxGeometry>
        </mxCell>
        <mxCell id="HCYrjCYM6zXAuYPB4qto-0" value="" style="rounded=1;whiteSpace=wrap;html=1;" vertex="1" parent="WIyWlLk6GJQsqaUBKTNV-1">
          <mxGeometry x="250" y="130" width="170" height="60" as="geometry" />
        </mxCell>
        <mxCell id="HCYrjCYM6zXAuYPB4qto-1" value="Calcular:&lt;br&gt;ángulo de la línea - ángulo del robot con la línea" style="text;html=1;strokeColor=none;fillColor=none;align=center;verticalAlign=middle;whiteSpace=wrap;rounded=0;" vertex="1" parent="WIyWlLk6GJQsqaUBKTNV-1">
          <mxGeometry x="260" y="145" width="160" height="30" as="geometry" />
        </mxCell>
        <mxCell id="HCYrjCYM6zXAuYPB4qto-4" value="Resultado &amp;gt; 180" style="text;html=1;strokeColor=none;fillColor=none;align=center;verticalAlign=middle;whiteSpace=wrap;rounded=0;" vertex="1" parent="WIyWlLk6GJQsqaUBKTNV-1">
          <mxGeometry x="200" y="200" width="100" height="30" as="geometry" />
        </mxCell>
        <mxCell id="HCYrjCYM6zXAuYPB4qto-5" value="&lt;span style=&quot;color: rgb(0, 0, 0); font-family: Helvetica; font-size: 12px; font-style: normal; font-variant-ligatures: normal; font-variant-caps: normal; font-weight: 400; letter-spacing: normal; orphans: 2; text-align: center; text-indent: 0px; text-transform: none; widows: 2; word-spacing: 0px; -webkit-text-stroke-width: 0px; background-color: rgb(251, 251, 251); text-decoration-thickness: initial; text-decoration-style: initial; text-decoration-color: initial; float: none; display: inline !important;&quot;&gt;Resultado &amp;lt; 180&lt;/span&gt;" style="text;whiteSpace=wrap;html=1;" vertex="1" parent="WIyWlLk6GJQsqaUBKTNV-1">
          <mxGeometry x="380" y="200" width="100" height="40" as="geometry" />
        </mxCell>
        <mxCell id="HCYrjCYM6zXAuYPB4qto-12" style="edgeStyle=orthogonalEdgeStyle;rounded=0;orthogonalLoop=1;jettySize=auto;html=1;exitX=0.5;exitY=1;exitDx=0;exitDy=0;entryX=0.5;entryY=0;entryDx=0;entryDy=0;" edge="1" parent="WIyWlLk6GJQsqaUBKTNV-1" source="HCYrjCYM6zXAuYPB4qto-6" target="HCYrjCYM6zXAuYPB4qto-10">
          <mxGeometry relative="1" as="geometry" />
        </mxCell>
        <mxCell id="HCYrjCYM6zXAuYPB4qto-6" value="" style="rounded=1;whiteSpace=wrap;html=1;" vertex="1" parent="WIyWlLk6GJQsqaUBKTNV-1">
          <mxGeometry x="130" y="290" width="120" height="60" as="geometry" />
        </mxCell>
        <mxCell id="HCYrjCYM6zXAuYPB4qto-7" value="Ángulos [-180, 180]" style="text;html=1;strokeColor=none;fillColor=none;align=center;verticalAlign=middle;whiteSpace=wrap;rounded=0;" vertex="1" parent="WIyWlLk6GJQsqaUBKTNV-1">
          <mxGeometry x="160" y="305" width="60" height="30" as="geometry" />
        </mxCell>
        <mxCell id="HCYrjCYM6zXAuYPB4qto-13" style="edgeStyle=orthogonalEdgeStyle;rounded=0;orthogonalLoop=1;jettySize=auto;html=1;exitX=0.5;exitY=1;exitDx=0;exitDy=0;entryX=0.5;entryY=0;entryDx=0;entryDy=0;" edge="1" parent="WIyWlLk6GJQsqaUBKTNV-1" source="HCYrjCYM6zXAuYPB4qto-8" target="HCYrjCYM6zXAuYPB4qto-10">
          <mxGeometry relative="1" as="geometry" />
        </mxCell>
        <mxCell id="HCYrjCYM6zXAuYPB4qto-8" value="" style="rounded=1;whiteSpace=wrap;html=1;" vertex="1" parent="WIyWlLk6GJQsqaUBKTNV-1">
          <mxGeometry x="420" y="290" width="120" height="60" as="geometry" />
        </mxCell>
        <mxCell id="HCYrjCYM6zXAuYPB4qto-9" value="Ángulos [0, 360]" style="text;html=1;strokeColor=none;fillColor=none;align=center;verticalAlign=middle;whiteSpace=wrap;rounded=0;" vertex="1" parent="WIyWlLk6GJQsqaUBKTNV-1">
          <mxGeometry x="450" y="305" width="60" height="30" as="geometry" />
        </mxCell>
        <mxCell id="HCYrjCYM6zXAuYPB4qto-10" value="" style="rounded=1;whiteSpace=wrap;html=1;" vertex="1" parent="WIyWlLk6GJQsqaUBKTNV-1">
          <mxGeometry x="275" y="390" width="120" height="60" as="geometry" />
        </mxCell>
        <mxCell id="HCYrjCYM6zXAuYPB4qto-14" value="Aplicar fórmula de la orientación" style="text;html=1;strokeColor=none;fillColor=none;align=center;verticalAlign=middle;whiteSpace=wrap;rounded=0;" vertex="1" parent="WIyWlLk6GJQsqaUBKTNV-1">
          <mxGeometry x="287.5" y="405" width="95" height="30" as="geometry" />
        </mxCell>
      </root>
    </mxGraphModel>
  </diagram>
</mxfile>
